<?xml version='1.0' encoding='iso-8859-1'?>
<!DOCTYPE svg PUBLIC '-//W3C//DTD SVG 1.1//EN' 'http://www.w3.org/Graphics/SVG/1.1/DTD/svg11.dtd'>
<svg version="1.1" xmlns="http://www.w3.org/2000/svg" viewBox="0 0 297 297" xmlns:xlink="http://www.w3.org/1999/xlink" enable-background="new 0 0 297 297">
  <g>
    <path d="m255.402,41.116c-22.937,0-41.599,18.661-41.599,41.598s18.661,41.599 41.599,41.599c22.937,0 41.598-18.662 41.598-41.599s-18.661-41.598-41.598-41.598zm0,65.786c-13.338,0-24.188-10.85-24.188-24.188 0-13.337 10.85-24.187 24.188-24.187 13.337,0 24.187,10.85 24.187,24.187 0.001,13.338-10.85,24.188-24.187,24.188z"/>
    <path d="m10.772,97.093c1.7,1.699 3.928,2.549 6.156,2.549s4.456-0.85 6.156-2.549l22.626-22.626 22.626,22.626c1.7,1.699 3.928,2.549 6.156,2.549 2.228,0 4.456-0.85 6.156-2.549 3.399-3.399 3.399-8.912 0-12.312l-22.627-22.625 22.626-22.626c3.399-3.399 3.399-8.912 0-12.312-3.4-3.398-8.911-3.398-12.312,0l-22.625,22.626-22.626-22.626c-3.4-3.398-8.911-3.398-12.312,0-3.399,3.399-3.399,8.912 0,12.312l22.626,22.626-22.626,22.625c-3.399,3.4-3.399,8.912 1.77636e-15,12.312z"/>
    <path d="m195.772,199.907c-3.4-3.398-8.911-3.398-12.312,0l-22.625,22.625-22.626-22.625c-3.4-3.398-8.911-3.398-12.312,0-3.399,3.4-3.399,8.912 0,12.312l22.626,22.625-22.626,22.626c-3.399,3.399-3.399,8.912 0,12.312 1.7,1.699 3.928,2.549 6.156,2.549s4.456-0.85 6.156-2.549l22.626-22.626 22.625,22.625c1.7,1.699 3.928,2.549 6.156,2.549 2.228,0 4.456-0.85 6.156-2.549 3.399-3.4 3.399-8.912 0-12.312l-22.625-22.625 22.625-22.625c3.4-3.4 3.4-8.913 0-12.312z"/>
    <path d="m196.45,77.836l-35.107-30.518c-3.628-3.155-9.127-2.768-12.281,0.859-3.154,3.628-2.769,9.126 0.859,12.281l18.618,16.185c-54.952,7.187-87.489,35.904-105.577,60.176-15.843,21.26-23.25,42.201-26.224,52.608-20.654,2.415-36.738,20.012-36.738,41.305 0,22.937 18.661,41.599 41.598,41.599s41.599-18.661 41.599-41.599c0-18.464-12.096-34.148-28.777-39.567 3.133-9.898 9.919-27.229 22.924-44.503 22.64-30.071 54.091-47.78 93.656-52.816l-17.348,19.957c-3.154,3.628-2.769,9.126 0.859,12.281 1.648,1.433 3.682,2.135 5.707,2.135 2.433,0 4.853-1.014 6.574-2.994l30.518-35.108c3.154-3.629 2.769-9.126-0.86-12.281zm-130.664,152.896c0,13.338-10.85,24.188-24.188,24.188-13.337,0-24.187-10.85-24.187-24.188 0-13.337 10.85-24.187 24.187-24.187 13.337,0 24.188,10.85 24.188,24.187z"/>
  </g>
</svg>
